#!OML:ASF F:\twosubjects\two\Thursday\Session 1\Rory.ASF
:FULLY-SPECIFIED
:DEGREES
270
root 9.61941 13.2298 5.09662 -145.224 -85.1713 120.385
lowerback 33.5795 1.66743 -3.95553
upperback 13.5133 -0.906081 -0.362947
thorax -2.29071 -1.35769 2.02213
lowerneck -10.4525 -7.20354 -10.8693
upperneck 35.2588 -16.4235 15.6403
head 16.9694 -7.22622 5.67424
rclavicle -9.79014e-015 1.59028e-015
rhumerus 3.26618 20.7642 -86.2626
rradius 44.6346
rwrist 22.2243
rhand -33.2584 40.6934
rfingers 7.12502
rthumb -6.4637 10.8121
lclavicle -9.79014e-015 1.59028e-015
lhumerus 6.92977 -25.7951 81.0356
lradius 39.2191
lwrist -29.6987
lhand -22.4222 30.0116
lfingers 7.12502
lthumb 4.00109 59.9537
rfemur -46.0322 -9.96255 8.38959
rtibia 64.1813
rfoot 9.79909 -2.53652
rtoes -2.50325
lfemur -42.8766 4.83065 -12.1027
ltibia 59.6769
lfoot 10.4038 5.88925
ltoes 28.6581
271
root 9.61965 13.236 5.09515 -141.997 -85.1432 117.258
lowerback 34.8431 1.31436 -1.17552
upperback 12.4497 -0.500977 -1.8398
thorax -3.9488 -0.918428 -1.08483
lowerneck -8.95645 -7.66658 -10.4123
upperneck 34.9914 -18.0338 16.9555
head 16.9879 -7.84687 5.90763
rclavicle -7.55382e-015 8.54774e-015
rhumerus 0.980044 16.9437 -88.0856
rradius 44.781
rwrist 23.4667
rhand -33.5895 41.0517
rfingers 7.12502
rthumb -6.7833 11.1803
lclavicle -7.55382e-015 8.54774e-015
lhumerus 6.06139 -29.7301 80.4898
lradius 39.2922
lwrist -29.3583
lhand -22.7073 30.1343
lfingers 7.12502
lthumb 3.72574 60.0815
rfemur -46.0742 -10.033 8.1081
rtibia 64.1654
rfoot 9.72476 -2.73389
rtoes -2.7287
lfemur -42.9636 4.73296 -12.3922
ltibia 59.6001
lfoot 10.4391 5.76621
ltoes 27.7198
272
root 9.62232 13.2381 5.09652 -143.01 -85.346 118.182
lowerback 34.7373 1.34325 -1.84048
upperback 12.6092 -0.660269 -1.30984
thorax -3.7263 -1.04695 -0.131079
lowerneck -9.19079 -7.53891 -10.6405
upperneck 34.9895 -17.5043 16.4944
head 16.8658 -7.66902 5.834
rclavicle -1.2424e-015 -4.03781e-015
rhumerus 1.45966 18.3224 -87.4614
rradius 44.6964
rwrist 23.3675
rhand -34.2878 40.5908
rfingers 7.12502
rthumb -7.45736 10.7423
lclavicle -1.2424e-015 -4.03781e-015
lhumerus 6.09638 -28.4979 81.0908
lradius 39.0048
lwrist -28.8998
lhand -23.7766 30.2919
lfingers 7.12502
lthumb 2.69313 60.2546
rfemur -45.8559 -10.003 8.27715
rtibia 64.1073
rfoot 9.78596 -2.79793
rtoes -3.33633
lfemur -42.8713 4.65525 -12.2051
ltibia 59.5704
lfoot 10.3138 5.86702
ltoes 28.1418
273
root 9.62245 13.2391 5.09391 -144.893 -85.452 120.042
lowerback 34.5244 1.34267 -1.92881
upperback 12.7788 -0.686151 -1.1414
thorax -3.46467 -1.07966 0.0955461
lowerneck -9.39839 -7.49303 -10.6645
upperneck 34.9705 -17.3189 16.3587
head 16.8444 -7.58787 5.80441
rclavicle 1.53126e-015 1.38404e-014
rhumerus 1.80885 18.7658 -87.2526
rradius 44.6011
rwrist 23.4189
rhand -35.2334 39.7597
rfingers 7.12502
rthumb -8.37 9.94558
lclavicle 1.53126e-015 1.38404e-014
lhumerus 6.31003 -28.0735 81.1751
lradius 38.8818
lwrist -28.6586
lhand -24.23 30.5125
lfingers 7.12502
lthumb 2.25527 60.4804
rfemur -45.8054 -10.0353 8.51128
rtibia 64.0618
rfoot 9.86501 -2.6594
rtoes -2.94406
lfemur -42.8423 4.70767 -11.9971
ltibia 59.5783
lfoot 10.3266 5.75883
ltoes 28.5144
274
root 9.62227 13.2419 5.08938 -144.974 -85.3118 120.169
lowerback 34.3423 1.3883 -2.37985
upperback 12.8406 -0.767763 -1.05405
thorax -3.32622 -1.1431 0.448368
lowerneck -9.56543 -7.38974 -10.6995
upperneck 35.0027 -17.0196 16.1274
head 16.8 -7.47459 5.76036
rclavicle -5.2181e-016 5.61567e-015
rhumerus 1.99808 19.5085 -87.2178
rradius 44.5213
rwrist 23.3748
rhand -36.0275 39.2218
rfingers 7.12502
rthumb -9.13632 9.43968
lclavicle -5.2181e-016 5.61567e-015
lhumerus 6.30425 -27.4009 81.2189
lradius 38.9128
lwrist -29.3372
lhand -23.5801 30.5781
lfingers 7.12502
lthumb 2.88293 60.5384
rfemur -45.9 -9.88922 8.43266
rtibia 64.0511
rfoot 9.80538 -2.77026
rtoes -1.84772
lfemur -42.8502 4.85135 -12.0458
ltibia 59.6023
lfoot 10.1972 5.96362
ltoes 30.1372
275
root 9.62275 13.2418 5.08718 -146.672 -85.3291 121.824
lowerback 34.3288 1.33833 -2.49567
upperback 12.9096 -0.870865 -0.917543
thorax -3.24138 -1.21043 0.683796
lowerneck -9.79741 -7.30624 -11.0375
upperneck 35.0389 -16.7331 16.0495
head 16.8382 -7.38782 5.84046
rclavicle -1.3008e-014 -1.42131e-014
rhumerus 2.22632 20.1076 -87.1868
rradius 44.3916
rwrist 23.3287
rhand -36.2648 39.2934
rfingers 7.12502
rthumb -9.36535 9.52141
lclavicle -1.3008e-014 -1.42131e-014
lhumerus 6.35457 -26.7681 81.3447
lradius 38.8724
lwrist -29.6811
lhand -23.3253 30.5659
lfingers 7.12502
lthumb 3.12895 60.5227
rfemur -45.8282 -9.63642 8.51263
rtibia 64.0389
rfoot 9.67868 -3.03768
rtoes -1.22707
lfemur -42.7967 4.88365 -11.8476
ltibia 59.6363
lfoot 9.95395 6.3342
ltoes 32.0907
276
root 9.62149 13.2388 5.08602 -147.376 -85.4042 122.56
lowerback 34.3825 1.3076 -2.24042
upperback 12.8692 -0.820016 -0.863323
thorax -3.30776 -1.17452 0.590625
lowerneck -9.90047 -7.35136 -11.2783
upperneck 35.0863 -16.7338 16.051
head 16.9188 -7.40922 5.88595
rclavicle -9.36773e-015 3.32964e-015
rhumerus 2.18655 20.1339 -87.0023
rradius 44.3431
rwrist 23.313
rhand -36.3202 39.5359
rfingers 7.12502
rthumb -9.41877 9.76639
lclavicle -9.36773e-015 3.32964e-015
lhumerus 6.43898 -26.5532 81.583
lradius 38.7714
lwrist -30.0869
lhand -22.6419 29.6757
lfingers 7.12502
lthumb 3.78894 59.6217
rfemur -45.8491 -9.71217 8.63619
rtibia 64.0227
rfoot 9.68594 -2.97415
rtoes -1.93183
lfemur -42.8632 4.84268 -11.7408
ltibia 59.6382
lfoot 9.92711 6.54976
ltoes 32.7014
277
root 9.62362 13.2387 5.08984 -145.723 -85.4365 120.965
lowerback 34.4701 1.33862 -2.04618
upperback 12.7592 -0.704382 -0.865336
thorax -3.46178 -1.10033 0.451004
lowerneck -9.86491 -7.45992 -11.2701
upperneck 35.1248 -16.8792 15.9652
head 16.9502 -7.47489 5.81739
rclavicle 4.67144e-015 1.36167e-014
rhumerus 1.92521 20.1719 -86.6091
rradius 44.4441
rwrist 22.9654
rhand -36.3953 39.5399
rfingers 7.12502
rthumb -9.49121 9.77361
lclavicle 4.67144e-015 1.36167e-014
lhumerus 6.44488 -26.637 81.8973
lradius 38.651
lwrist -30.6905
lhand -22.0681 29.0023
lfingers 7.12502
lthumb 4.34305 58.9377
rfemur -45.9141 -9.95906 8.56644
rtibia 64.0061
rfoot 9.78999 -2.80311
rtoes -2.68071
lfemur -42.9531 4.72204 -11.8776
ltibia 59.6103
lfoot 9.97019 6.69613
ltoes 32.8048
278
root 9.63182 13.2482 5.09385 -144.098 -85.4741 119.321
lowerback 34.5988 1.31509 -1.91959
upperback 12.6705 -0.691449 -0.929669
thorax -3.6053 -1.08057 0.315379
lowerneck -9.76633 -7.4955 -11.266
upperneck 35.1295 -16.9594 15.9849
head 16.9492 -7.51262 5.81292
rclavicle -1.71203e-014 -2.11706e-014
rhumerus 1.77683 19.9763 -86.6422
rradius 44.4051
rwrist 23.0043
rhand -36.4753 39.5505
rfingers 7.12502
rthumb -9.56841 9.78781
lclavicle -1.71203e-014 -2.11706e-014
lhumerus 6.33518 -27.1084 81.9015
lradius 38.6567
lwrist -30.3451
lhand -22.5431 29.1453
lfingers 7.12502
lthumb 3.88431 59.0897
rfemur -45.8207 -9.94874 8.41032
rtibia 63.9768
rfoot 9.80333 -2.93075
rtoes -1.62769
lfemur -42.9381 4.53803 -11.9375
ltibia 59.5789
lfoot 10.2543 6.42629
ltoes 31.7046
